<mxfile host="app.diagrams.net" modified="2020-12-09T11:08:46.843Z" agent="5.0 (Windows)" etag="FlOK06r0PJRgfhsXKw9l" version="13.11.0" type="github">
  <diagram id="w1ukBDx6zw6wcxLItHl0" name="Page-1">
    <mxGraphModel dx="1038" dy="575" grid="1" gridSize="10" guides="1" tooltips="1" connect="1" arrows="1" fold="1" page="1" pageScale="1" pageWidth="850" pageHeight="1100" background="#7AA2FF" math="0" shadow="0">
      <root>
        <mxCell id="0" />
        <mxCell id="1" parent="0" />
        <mxCell id="GdWQ3C4kMzwYWPHnyi9k-1" value="" style="ellipse;whiteSpace=wrap;html=1;aspect=fixed;" parent="1" vertex="1">
          <mxGeometry x="480" y="220" width="70" height="70" as="geometry" />
        </mxCell>
        <mxCell id="GdWQ3C4kMzwYWPHnyi9k-4" value="" style="ellipse;whiteSpace=wrap;html=1;aspect=fixed;" parent="1" vertex="1">
          <mxGeometry x="270" y="220" width="70" height="70" as="geometry" />
        </mxCell>
        <mxCell id="GdWQ3C4kMzwYWPHnyi9k-5" value="" style="ellipse;whiteSpace=wrap;html=1;aspect=fixed;" parent="1" vertex="1">
          <mxGeometry x="370" y="100" width="70" height="70" as="geometry" />
        </mxCell>
        <mxCell id="GdWQ3C4kMzwYWPHnyi9k-8" value="" style="strokeWidth=2;html=1;shape=mxgraph.flowchart.annotation_2;align=left;labelPosition=right;pointerEvents=1;direction=south;" parent="1" vertex="1">
          <mxGeometry x="305" y="170" width="210" height="50" as="geometry" />
        </mxCell>
        <mxCell id="GdWQ3C4kMzwYWPHnyi9k-9" value="" style="ellipse;whiteSpace=wrap;html=1;aspect=fixed;" parent="1" vertex="1">
          <mxGeometry x="320" y="340" width="70" height="70" as="geometry" />
        </mxCell>
        <mxCell id="GdWQ3C4kMzwYWPHnyi9k-10" value="" style="ellipse;whiteSpace=wrap;html=1;aspect=fixed;" parent="1" vertex="1">
          <mxGeometry x="220" y="340" width="70" height="70" as="geometry" />
        </mxCell>
        <mxCell id="GdWQ3C4kMzwYWPHnyi9k-11" value="&lt;p&gt;&lt;br&gt;&lt;/p&gt;" style="ellipse;whiteSpace=wrap;html=1;aspect=fixed;" parent="1" vertex="1">
          <mxGeometry x="370" y="100" width="70" height="70" as="geometry" />
        </mxCell>
        <mxCell id="GdWQ3C4kMzwYWPHnyi9k-12" value="" style="strokeWidth=2;html=1;shape=mxgraph.flowchart.annotation_2;align=left;labelPosition=right;pointerEvents=1;direction=south;" parent="1" vertex="1">
          <mxGeometry x="255" y="290" width="100" height="50" as="geometry" />
        </mxCell>
        <mxCell id="GdWQ3C4kMzwYWPHnyi9k-15" value="" style="ellipse;whiteSpace=wrap;html=1;aspect=fixed;" parent="1" vertex="1">
          <mxGeometry x="530" y="340" width="70" height="70" as="geometry" />
        </mxCell>
        <mxCell id="GdWQ3C4kMzwYWPHnyi9k-16" value="" style="ellipse;whiteSpace=wrap;html=1;aspect=fixed;" parent="1" vertex="1">
          <mxGeometry x="430" y="340" width="70" height="70" as="geometry" />
        </mxCell>
        <mxCell id="GdWQ3C4kMzwYWPHnyi9k-17" value="" style="strokeWidth=2;html=1;shape=mxgraph.flowchart.annotation_2;align=left;labelPosition=right;pointerEvents=1;direction=south;" parent="1" vertex="1">
          <mxGeometry x="465" y="290" width="100" height="50" as="geometry" />
        </mxCell>
        <mxCell id="7zwHGBG26w4mm7wUaiLM-2" value="90" style="text;html=1;strokeColor=none;fillColor=none;align=center;verticalAlign=middle;whiteSpace=wrap;rounded=0;fontFamily=Verdana;fontSize=18;fontColor=#6666FF;" vertex="1" parent="1">
          <mxGeometry x="382.5" y="121.25" width="45" height="27.5" as="geometry" />
        </mxCell>
        <mxCell id="7zwHGBG26w4mm7wUaiLM-3" value="70" style="text;html=1;strokeColor=none;fillColor=none;align=center;verticalAlign=middle;whiteSpace=wrap;rounded=0;fontFamily=Verdana;fontSize=18;fontColor=#6666FF;" vertex="1" parent="1">
          <mxGeometry x="285" y="245" width="40" height="20" as="geometry" />
        </mxCell>
        <mxCell id="7zwHGBG26w4mm7wUaiLM-4" value="60" style="text;html=1;strokeColor=none;fillColor=none;align=center;verticalAlign=middle;whiteSpace=wrap;rounded=0;fontFamily=Verdana;fontSize=18;fontColor=#6666FF;" vertex="1" parent="1">
          <mxGeometry x="495" y="245" width="40" height="20" as="geometry" />
        </mxCell>
        <mxCell id="7zwHGBG26w4mm7wUaiLM-5" value="45" style="text;html=1;strokeColor=none;fillColor=none;align=center;verticalAlign=middle;whiteSpace=wrap;rounded=0;fontFamily=Verdana;fontSize=18;fontColor=#6666FF;" vertex="1" parent="1">
          <mxGeometry x="445" y="365" width="40" height="20" as="geometry" />
        </mxCell>
        <mxCell id="7zwHGBG26w4mm7wUaiLM-6" value="30" style="text;html=1;strokeColor=none;fillColor=none;align=center;verticalAlign=middle;whiteSpace=wrap;rounded=0;fontFamily=Verdana;fontSize=18;fontColor=#6666FF;" vertex="1" parent="1">
          <mxGeometry x="545" y="365" width="40" height="20" as="geometry" />
        </mxCell>
        <mxCell id="7zwHGBG26w4mm7wUaiLM-7" value="26" style="text;html=1;strokeColor=none;fillColor=none;align=center;verticalAlign=middle;whiteSpace=wrap;rounded=0;fontFamily=Verdana;fontSize=18;fontColor=#6666FF;" vertex="1" parent="1">
          <mxGeometry x="235" y="365" width="40" height="20" as="geometry" />
        </mxCell>
        <mxCell id="7zwHGBG26w4mm7wUaiLM-8" value="29" style="text;html=1;strokeColor=none;fillColor=none;align=center;verticalAlign=middle;whiteSpace=wrap;rounded=0;fontFamily=Verdana;fontSize=18;fontColor=#6666FF;" vertex="1" parent="1">
          <mxGeometry x="335" y="365" width="40" height="20" as="geometry" />
        </mxCell>
        <mxCell id="7zwHGBG26w4mm7wUaiLM-9" value="" style="ellipse;whiteSpace=wrap;html=1;aspect=fixed;" vertex="1" parent="1">
          <mxGeometry x="270" y="460" width="70" height="70" as="geometry" />
        </mxCell>
        <mxCell id="7zwHGBG26w4mm7wUaiLM-10" value="" style="ellipse;whiteSpace=wrap;html=1;aspect=fixed;" vertex="1" parent="1">
          <mxGeometry x="170" y="460" width="70" height="70" as="geometry" />
        </mxCell>
        <mxCell id="7zwHGBG26w4mm7wUaiLM-11" value="" style="strokeWidth=2;html=1;shape=mxgraph.flowchart.annotation_2;align=left;labelPosition=right;pointerEvents=1;direction=south;" vertex="1" parent="1">
          <mxGeometry x="205" y="410" width="100" height="50" as="geometry" />
        </mxCell>
        <mxCell id="7zwHGBG26w4mm7wUaiLM-12" value="16" style="text;html=1;strokeColor=none;fillColor=none;align=center;verticalAlign=middle;whiteSpace=wrap;rounded=0;fontFamily=Verdana;fontSize=18;fontColor=#6666FF;" vertex="1" parent="1">
          <mxGeometry x="185" y="485" width="40" height="20" as="geometry" />
        </mxCell>
        <mxCell id="7zwHGBG26w4mm7wUaiLM-13" value="13" style="text;html=1;strokeColor=none;fillColor=none;align=center;verticalAlign=middle;whiteSpace=wrap;rounded=0;fontFamily=Verdana;fontSize=18;fontColor=#6666FF;" vertex="1" parent="1">
          <mxGeometry x="285" y="485" width="40" height="20" as="geometry" />
        </mxCell>
        <mxCell id="7zwHGBG26w4mm7wUaiLM-14" value="Text" style="text;html=1;strokeColor=none;fillColor=none;align=center;verticalAlign=middle;whiteSpace=wrap;rounded=0;fontFamily=Verdana;fontSize=18;fontColor=#6666FF;" vertex="1" parent="1">
          <mxGeometry x="410" y="290" width="40" height="20" as="geometry" />
        </mxCell>
        <mxCell id="7zwHGBG26w4mm7wUaiLM-15" value="Text" style="text;html=1;strokeColor=none;fillColor=none;align=center;verticalAlign=middle;whiteSpace=wrap;rounded=0;fontFamily=Verdana;fontSize=18;fontColor=#6666FF;" vertex="1" parent="1">
          <mxGeometry x="410" y="290" width="40" height="20" as="geometry" />
        </mxCell>
        <mxCell id="7zwHGBG26w4mm7wUaiLM-16" value="Text" style="text;html=1;strokeColor=none;fillColor=none;align=center;verticalAlign=middle;whiteSpace=wrap;rounded=0;fontFamily=Verdana;fontSize=18;fontColor=#6666FF;" vertex="1" parent="1">
          <mxGeometry x="410" y="290" width="40" height="20" as="geometry" />
        </mxCell>
        <mxCell id="7zwHGBG26w4mm7wUaiLM-18" value="&lt;font color=&quot;#0000CC&quot;&gt;MAX HEAP&lt;/font&gt;" style="text;html=1;strokeColor=none;fillColor=none;spacing=5;spacingTop=-20;whiteSpace=wrap;overflow=hidden;rounded=0;fontFamily=Verdana;fontSize=18;fontColor=#6666FF;" vertex="1" parent="1">
          <mxGeometry x="355" y="80" width="115" height="20" as="geometry" />
        </mxCell>
      </root>
    </mxGraphModel>
  </diagram>
</mxfile>
